<svg width="22" height="24" viewBox="0 0 22 24" fill="none" xmlns="http://www.w3.org/2000/svg">
<path d="M8.92558 0.0986328V2.08212H12.8925V0.0986328H16.8594L16.8596 2.16443C19.6738 2.63667 21.8181 5.08421 21.8181 8.03259C21.8181 9.55674 21.2451 10.947 20.3027 11.9998C21.2451 13.0523 21.8181 14.4425 21.8181 15.9665C21.8181 18.9149 19.6738 21.3625 16.8596 21.8347L16.8594 23.9005H12.8925V21.917H8.92558V23.9005H4.95866V21.917H3.96692C1.77605 21.917 0 20.1409 0 17.95V6.0491C0 3.8582 1.77605 2.08212 3.96692 2.08212H4.95866V0.0986328H8.92558ZM15.8677 6.0491H3.96692V10.0161H8.92558V13.9831H3.96692V17.95H15.8677C16.9631 17.95 17.8512 17.062 17.8512 15.9665C17.8512 14.8711 16.9631 13.9831 15.8677 13.9831H12.8925V10.0161H15.8677C16.9631 10.0161 17.8512 9.12804 17.8512 8.03259C17.8512 6.93714 16.9631 6.0491 15.8677 6.0491Z" fill="url(#paint0_linear_3334_23950)"/>
<defs>
<linearGradient id="paint0_linear_3334_23950" x1="10.909" y1="0.0986328" x2="10.909" y2="23.9005" gradientUnits="userSpaceOnUse">
<stop stop-color="#16D6FF"/>
<stop offset="1" stop-color="#0099E6"/>
</linearGradient>
</defs>
</svg>
